<svg version="1.1" id="Layer_1" xmlns="http://www.w3.org/2000/svg" xmlns:xlink="http://www.w3.org/1999/xlink" x="0px" y="0px"
	 width="100%" viewBox="0 0 669 671" enable-background="new 0 0 669 671" xml:space="preserve">


<path fill="#ffffff" opacity="1.000000" stroke="none" 
	d="
M419.114502,581.681335 
	C417.075073,583.790344 415.151459,585.585449 412.796082,587.806763 
	C409.574371,591.150452 406.784363,594.067810 403.994385,596.985229 
	C396.602844,604.179871 389.150543,611.313354 381.835510,618.584839 
	C373.137878,627.230774 364.558167,635.995361 355.783264,644.987671 
	C353.750000,647.095886 351.860870,648.924866 349.532654,651.128784 
	C348.289703,652.419067 347.485809,653.334473 346.681915,654.249878 
	C344.610077,656.218628 342.538239,658.187378 340.250977,660.521240 
	C340.035553,660.886230 339.869720,661.117981 339.869690,661.117981 
	C338.012939,662.746460 336.156189,664.374939 334.606354,665.734253 
	C319.314941,650.367432 304.095245,635.072693 288.392181,619.292236 
	C319.997314,587.654663 352.300323,555.318542 385.049072,522.547119 
	C389.753876,517.415833 394.000305,512.708191 398.277161,508.028412 
	C400.509460,505.585785 402.648926,503.030487 405.093384,500.816559 
	C408.303955,497.908691 412.041656,495.554077 415.087433,492.497864 
	C431.470642,476.058777 447.709595,459.475922 464.339386,442.935486 
	C466.722839,440.796600 468.765228,438.664825 471.095276,436.388641 
	C473.246094,434.281799 475.109283,432.319427 477.251709,430.242767 
	C507.484985,400.168121 537.439026,370.207733 567.216797,340.423615 
	C551.381592,324.640594 535.870667,309.180847 519.472534,292.836823 
	C517.377502,295.297211 515.179443,298.218842 512.639587,300.804779 
	C498.787292,314.908386 484.850922,328.929413 470.626862,343.095612 
	C466.741486,346.886444 463.172699,350.560455 459.297516,354.388184 
	C457.303040,356.345428 455.614929,358.148987 453.960876,359.973572 
	C453.994965,359.994568 453.953583,359.926025 453.638611,360.044250 
	C451.190002,362.429169 449.056366,364.695801 446.608765,367.076660 
	C439.305206,374.453033 432.315643,381.715271 424.829285,389.493683 
	C417.946350,382.384064 412.072906,376.121948 405.969666,370.092438 
	C402.738739,366.900513 398.904785,364.315399 395.704163,361.097198 
	C390.388794,355.752594 385.364410,350.118561 380.217499,344.606415 
	C360.279205,324.549072 340.367340,304.465332 320.392700,284.444275 
	C308.531921,272.555939 296.572144,260.766388 284.098328,248.377625 
	C309.567017,223.050186 334.674042,198.082367 359.943481,172.791016 
	C376.144318,156.559814 392.220764,140.690155 408.199402,124.722618 
	C413.366882,119.558723 418.361664,114.214256 423.273651,108.805412 
	C426.098236,105.695091 428.632538,105.163551 431.794312,109.181808 
	C434.486908,111.746964 436.745270,113.869431 439.003662,115.991898 
	C439.479034,116.598770 439.954407,117.205643 440.709656,117.907845 
	C450.716614,127.854309 460.451019,137.698257 470.163239,147.564087 
	C471.662964,149.087509 473.060730,150.711304 474.317200,152.825638 
	C473.409332,154.215134 472.689880,155.067673 471.699097,155.994873 
	C470.836792,156.775543 470.245819,157.481537 469.336060,158.342468 
	C467.063568,160.549149 465.109894,162.600876 462.889099,164.769333 
	C461.716766,165.909088 460.811554,166.932114 459.665680,168.009613 
	C459.112457,168.251297 458.957306,168.527054 458.661255,169.001526 
	C457.545044,170.063248 456.727081,171.014816 455.596405,172.086990 
	C452.068665,175.533585 448.853638,178.859558 445.330688,182.318115 
	C444.283691,183.275772 443.544586,184.100845 442.493469,185.035507 
	C420.636261,206.505005 399.091034,227.864914 378.115417,248.660141 
	C388.961578,259.913727 399.091888,270.424591 409.331329,281.222687 
	C410.650269,282.594086 411.860077,283.678223 413.201660,285.076050 
	C415.967133,287.903870 418.600891,290.417999 421.347534,293.224060 
	C423.196411,294.142548 423.845886,298.921387 427.082550,294.791779 
	C427.891541,294.039825 428.412994,293.407928 429.211731,292.675720 
	C430.248474,291.694183 431.007904,290.813019 432.070679,289.797150 
	C433.560425,288.364960 434.746826,287.067505 436.218414,285.656494 
	C437.597931,284.340790 438.692261,283.138641 440.090332,281.796082 
	C441.907745,280.029968 443.421417,278.404297 445.211792,276.675629 
	C446.255768,275.694275 447.023071,274.815918 448.098328,273.792542 
	C451.914764,270.019897 455.423279,266.392242 459.209900,262.662933 
	C460.111755,261.815002 460.735535,261.068726 461.235535,260.185608 
	C461.111786,260.048798 461.327057,260.348511 461.604736,260.248352 
	C462.514191,259.410339 463.145966,258.672485 464.063141,257.809204 
	C464.871063,257.051910 465.393555,256.420044 466.204803,255.670746 
	C467.447784,254.475632 468.402008,253.397964 469.224670,252.206818 
	C469.093140,252.093338 469.323608,252.353363 469.611389,252.237823 
	C470.864532,251.061096 471.829865,249.999908 473.088684,248.802948 
	C474.228241,247.703949 475.074310,246.740738 475.920410,245.777542 
	C490.349884,231.486008 504.763275,217.178131 519.235840,202.930359 
	C520.559387,201.627350 521.775269,198.772217 524.647522,201.790680 
	C537.145996,214.235809 549.294189,226.512512 561.434448,238.797058 
	C566.715088,244.140427 571.979370,249.499863 577.572205,254.944122 
	C603.306213,280.511627 628.714478,305.991577 654.139771,331.454620 
	C656.487183,333.805573 658.942871,336.048431 662.033997,338.995026 
	C628.103943,372.808990 594.516663,406.281403 560.800293,440.041809 
	C559.785278,441.146423 558.899414,441.962982 557.575562,443.149719 
	C556.594666,444.142181 556.051697,444.764435 555.508728,445.386719 
	C555.508728,445.386688 555.484436,445.495850 555.159546,445.673584 
	C552.311951,448.471313 549.789307,451.091309 547.266663,453.711365 
	C542.131348,458.739410 536.960693,463.731934 531.867676,468.802521 
	C519.306152,481.308655 506.780273,493.850647 494.128540,506.693665 
	C494.017059,507.009064 493.999695,507.000946 493.693359,507.129883 
	C492.015625,508.741760 490.644165,510.224731 489.272705,511.707642 
	C488.575043,512.303650 487.877411,512.899658 486.779846,513.873169 
	C482.482849,518.254028 478.585785,522.257568 474.688721,526.261108 
	C456.202576,544.629883 437.716461,562.998596 419.114502,581.681335 
z"/>
<path fill="#ffffff" opacity="1.000000" stroke="none" 
	d="
M238.001999,107.005325 
	C238.936462,106.203285 239.870926,105.401237 241.228180,104.184921 
	C242.473587,102.195160 243.296188,100.619667 244.118790,99.044174 
	C245.889160,98.034256 247.986954,97.353409 249.381516,95.965790 
	C276.604462,68.878929 303.757904,41.722088 330.877014,14.531132 
	C332.815521,12.587484 334.432220,10.836144 337.100769,14.489332 
	C341.247711,18.564209 344.959259,22.171959 348.670807,25.779713 
	C349.589600,26.794811 350.508362,27.809904 351.712280,28.912922 
	C362.404541,38.822346 372.811676,48.643845 383.939117,59.145126 
	C372.548767,70.379524 362.406494,80.382927 352.133881,90.693710 
	C340.381622,102.415550 328.699646,113.769554 317.149323,125.255936 
	C284.438812,157.785385 251.782211,190.369019 218.680908,223.342834 
	C217.589294,224.527481 216.921143,225.300568 216.252991,226.073669 
	C215.192612,227.029343 214.132217,227.985016 212.646332,229.363754 
	C211.658356,230.465332 211.095856,231.143829 210.533356,231.822327 
	C210.102402,232.151917 209.671432,232.481506 208.841614,233.178284 
	C207.030624,235.058899 205.618484,236.572327 204.206329,238.085754 
	C202.573364,239.570221 200.940399,241.054688 199.171921,242.844116 
	C193.692352,248.356537 188.300507,253.515961 183.012009,258.779236 
	C150.025238,291.608856 117.061584,324.461761 83.959229,357.625000 
	C74.589134,367.947144 65.350075,377.951202 56.389198,387.654053 
	C39.045231,370.252075 23.349325,354.503693 7.137788,338.237946 
	C43.365189,301.994232 80.221313,265.121460 117.200829,227.957672 
	C120.281647,224.624084 123.179459,221.520599 126.211609,218.554443 
	C129.997787,214.850662 133.894562,211.259949 138.172455,207.223694 
	C139.398224,205.883621 140.195099,204.940308 140.991974,203.996979 
	C155.058823,190.076797 169.153534,176.184647 183.184509,162.228424 
	C196.752975,148.732254 210.255768,135.170074 223.892181,121.318375 
	C224.679642,120.392799 225.362305,119.785736 226.488586,118.798859 
	C228.615448,116.610573 230.298676,114.802101 231.981888,112.993622 
	C232.922592,112.134026 233.863281,111.274429 235.173935,110.138199 
	C236.363266,108.909485 237.182632,107.957405 238.001999,107.005325 
z"/>
<path fill="#ffffff" opacity="1.000000" stroke="none" 
	d="
M216.639343,549.446655 
	C200.151184,533.569275 183.917480,517.912292 167.827667,502.108856 
	C164.686493,499.023621 162.103943,495.369659 158.844742,491.552643 
	C157.931976,490.751984 157.438187,490.376709 156.944397,490.001434 
	C156.157379,489.070526 155.370361,488.139648 154.290619,487.108124 
	C147.397476,480.875244 140.797073,474.743011 134.082932,468.020264 
	C133.668228,467.223907 133.367279,467.017975 133.066345,466.812073 
	C132.089203,465.724152 131.112061,464.636261 129.930008,462.965576 
	C128.483124,461.261047 127.241150,460.139282 125.999176,459.017517 
	C123.204781,456.109070 120.410370,453.200623 117.210480,449.881836 
	C116.194183,448.984375 115.583382,448.497223 114.972565,448.010071 
	C109.562241,443.196625 104.151932,438.383179 98.270889,433.150940 
	C104.388130,427.150055 109.188690,422.440826 114.353577,417.365723 
	C114.993790,416.813049 115.118179,416.553650 115.091080,416.221588 
	C126.211143,405.393494 137.392136,394.627106 148.437302,383.723145 
	C165.941055,366.443054 183.353958,349.070923 200.919205,331.424316 
	C202.939484,329.316345 204.845856,327.521790 207.185165,325.327454 
	C208.444046,323.963928 209.270004,323.000214 210.095978,322.036499 
	C221.793976,310.685059 233.491974,299.333618 244.843201,288.318665 
	C260.417328,303.992493 275.959900,319.634583 291.652832,335.427979 
	C260.093628,366.913391 227.799408,399.132141 195.473709,431.382263 
	C226.795044,462.600891 257.644928,493.349579 288.281799,523.885986 
	C271.698608,540.388977 255.926682,556.084656 238.799591,573.128906 
	C237.385010,571.250671 235.504715,568.754150 233.194611,565.823364 
	C231.933777,564.690979 231.102768,563.992798 230.271759,563.294556 
	C228.926361,561.858704 227.580948,560.422791 225.835510,558.542542 
	C223.862549,556.626770 222.289597,555.155457 220.716644,553.684082 
	C219.459122,552.328064 218.201614,550.971985 216.639343,549.446655 
z"/>

</svg>
